# xmcd
#
# Track frame offsets: 
#        150
#        4270
#        25283
#        30760
#        36591
#        41192
#        46979
#        52547
#        59961
#        70617
#        76858
#        83565
#        90421
#        98729
#        113631
#        119900
#        133012
#        141925
#        149940
#        159960
#        163764
#        173104
#        176451
#        179673
#        189738
#        196587
#        201486
#
# Disc length: 2808 seconds
#
# Revision: 0
# Processed by: cddbd v1.5.2PL0 Copyright (c) Steve Scherf et al.
# Submitted via: ExactAudioCopyFreeDBPlugin 1.0
#
DISCID=7c0af61b
DTITLE=Soundtrack - Batman - Arkham Asylum - Nick Arundel Ron Fish
DYEAR=2013
DGENRE=Soundtrack
TTITLE0=A Plan Revealed (Nick Arundel)
TTITLE1=Enter The Asylum (Nick Arundel)
TTITLE2=Joker Escapes (Nick Arundel)
TTITLE3=Only Three (Nick Arundel)
TTITLE4=Thugs Ambush (Nick Arundel)
TTITLE5=Venom Attack (Nick Arundel)
TTITLE6=Whiskey Trail (Nick Arundel)
TTITLE7=Edde`s Tale (Nick Arundel)
TTITLE8=Predator (Nick Arundel)
TTITLE9=In The Batcave (Nick Arundel)
TTITLE10=Where`s Jim? (Nick Arundel)
TTITLE11=Bombs Around Gotham (Nick Arundel)
TTITLE12=Batmobile Attack (Nick Arundel)
TTITLE13=Crackin` Heads (Nick Arundel)
TTITLE14=Deserted Corrodors (Nick Arundel)
TTITLE15=Eternal Glide (Nick Arundel)
TTITLE16=Finger Prints (Nick Arundel)
TTITLE17=In The Gardens (Nick Arundel)
TTITLE18=Garden Predator (Nick Arundel)
TTITLE19=Guard Murder (Nick Arundel)
TTITLE20=Harley fights Back (Nick Arundel)
TTITLE21=Ivy`s Theme (Nick Arundel)
TTITLE22=Mr. Zsasz (Nick Arundel)
TTITLE23=The Armoury (Nick Arundel)
TTITLE24=The Asylum Cells (Ron Fish and Nick Arundel)
TTITLE25=Venom Factory (Ron Fish and Nick Arundel)
TTITLE26=Playful Joker (Ron Fish)
EXTD=
EXTT0=
EXTT1=
EXTT2=
EXTT3=
EXTT4=
EXTT5=
EXTT6=
EXTT7=
EXTT8=
EXTT9=
EXTT10=
EXTT11=
EXTT12=
EXTT13=
EXTT14=
EXTT15=
EXTT16=
EXTT17=
EXTT18=
EXTT19=
EXTT20=
EXTT21=
EXTT22=
EXTT23=
EXTT24=
EXTT25=
EXTT26=
PLAYORDER=
